<svg width="142" height="25" viewBox="0 0 142 25" fill="none" xmlns="http://www.w3.org/2000/svg">
<rect x="4" y="4.5" width="16" height="16" rx="3" stroke="#2A3647" stroke-width="2"/>
<path d="M33.4091 18V6.36364H37.3409C38.25 6.36364 38.9962 6.51894 39.5795 6.82955C40.1629 7.13636 40.5947 7.55871 40.875 8.09659C41.1553 8.63447 41.2955 9.24621 41.2955 9.93182C41.2955 10.6174 41.1553 11.2254 40.875 11.7557C40.5947 12.286 40.1648 12.7027 39.5852 13.0057C39.0057 13.3049 38.2652 13.4545 37.3636 13.4545H34.1818V12.1818H37.3182C37.9394 12.1818 38.4394 12.0909 38.8182 11.9091C39.2008 11.7273 39.4773 11.4697 39.6477 11.1364C39.822 10.7992 39.9091 10.3977 39.9091 9.93182C39.9091 9.46591 39.822 9.05871 39.6477 8.71023C39.4735 8.36174 39.1951 8.0928 38.8125 7.90341C38.4299 7.71023 37.9242 7.61364 37.2955 7.61364H34.8182V18H33.4091ZM38.8864 12.7727L41.75 18H40.1136L37.2955 12.7727H38.8864ZM47.027 18.1818C46.1861 18.1818 45.4607 17.9962 44.8509 17.625C44.2448 17.25 43.777 16.7273 43.4474 16.0568C43.1217 15.3826 42.9588 14.5985 42.9588 13.7045C42.9588 12.8106 43.1217 12.0227 43.4474 11.3409C43.777 10.6553 44.2353 10.1212 44.8224 9.73864C45.4134 9.35227 46.1027 9.15909 46.8906 9.15909C47.3452 9.15909 47.794 9.23485 48.2372 9.38636C48.6804 9.53788 49.0838 9.78409 49.4474 10.125C49.8111 10.4621 50.1009 10.9091 50.3168 11.4659C50.5327 12.0227 50.6406 12.7083 50.6406 13.5227V14.0909H43.9134V12.9318H49.277C49.277 12.4394 49.1785 12 48.9815 11.6136C48.7884 11.2273 48.5118 10.9223 48.152 10.6989C47.7959 10.4754 47.3755 10.3636 46.8906 10.3636C46.3565 10.3636 45.8944 10.4962 45.5043 10.7614C45.1179 11.0227 44.8205 11.3636 44.6122 11.7841C44.4039 12.2045 44.2997 12.6553 44.2997 13.1364V13.9091C44.2997 14.5682 44.4134 15.1269 44.6406 15.5852C44.8717 16.0398 45.1918 16.3864 45.6009 16.625C46.0099 16.8598 46.4853 16.9773 47.027 16.9773C47.3793 16.9773 47.6974 16.928 47.9815 16.8295C48.2694 16.7273 48.5175 16.5758 48.7259 16.375C48.9342 16.1705 49.0952 15.9167 49.2088 15.6136L50.5043 15.9773C50.3679 16.4167 50.1387 16.803 49.8168 17.1364C49.4948 17.4659 49.0971 17.7235 48.6236 17.9091C48.1501 18.0909 47.6179 18.1818 47.027 18.1818ZM52.6804 18V9.27273H53.9759V10.6364H54.0895C54.2713 10.1705 54.5649 9.80871 54.9702 9.55114C55.3755 9.28977 55.8622 9.15909 56.4304 9.15909C57.0062 9.15909 57.4853 9.28977 57.8679 9.55114C58.2543 9.80871 58.5554 10.1705 58.7713 10.6364H58.8622C59.0857 10.1856 59.4209 9.82765 59.8679 9.5625C60.3149 9.29356 60.8509 9.15909 61.4759 9.15909C62.2562 9.15909 62.8944 9.40341 63.3906 9.89205C63.8868 10.3769 64.1349 11.1326 64.1349 12.1591V18H62.794V12.1591C62.794 11.5152 62.6179 11.0549 62.2656 10.7784C61.9134 10.5019 61.4986 10.3636 61.0213 10.3636C60.4077 10.3636 59.9323 10.5492 59.5952 10.9205C59.258 11.2879 59.0895 11.7538 59.0895 12.3182V18H57.7259V12.0227C57.7259 11.5265 57.5649 11.1269 57.2429 10.8239C56.9209 10.517 56.5062 10.3636 55.9986 10.3636C55.6501 10.3636 55.3243 10.4564 55.0213 10.642C54.7221 10.8277 54.4796 11.0852 54.294 11.4148C54.1122 11.7405 54.0213 12.1174 54.0213 12.5455V18H52.6804ZM70.2457 18.1818C69.4048 18.1818 68.6795 17.9962 68.0696 17.625C67.4635 17.25 66.9957 16.7273 66.6662 16.0568C66.3404 15.3826 66.1776 14.5985 66.1776 13.7045C66.1776 12.8106 66.3404 12.0227 66.6662 11.3409C66.9957 10.6553 67.4541 10.1212 68.0412 9.73864C68.6321 9.35227 69.3215 9.15909 70.1094 9.15909C70.5639 9.15909 71.0128 9.23485 71.456 9.38636C71.8991 9.53788 72.3026 9.78409 72.6662 10.125C73.0298 10.4621 73.3196 10.9091 73.5355 11.4659C73.7514 12.0227 73.8594 12.7083 73.8594 13.5227V14.0909H67.1321V12.9318H72.4957C72.4957 12.4394 72.3973 12 72.2003 11.6136C72.0071 11.2273 71.7306 10.9223 71.3707 10.6989C71.0147 10.4754 70.5942 10.3636 70.1094 10.3636C69.5753 10.3636 69.1132 10.4962 68.723 10.7614C68.3366 11.0227 68.0393 11.3636 67.831 11.7841C67.6226 12.2045 67.5185 12.6553 67.5185 13.1364V13.9091C67.5185 14.5682 67.6321 15.1269 67.8594 15.5852C68.0904 16.0398 68.4105 16.3864 68.8196 16.625C69.2287 16.8598 69.7041 16.9773 70.2457 16.9773C70.598 16.9773 70.9162 16.928 71.2003 16.8295C71.4882 16.7273 71.7363 16.5758 71.9446 16.375C72.1529 16.1705 72.3139 15.9167 72.4276 15.6136L73.723 15.9773C73.5866 16.4167 73.3575 16.803 73.0355 17.1364C72.7135 17.4659 72.3158 17.7235 71.8423 17.9091C71.3688 18.0909 70.8366 18.1818 70.2457 18.1818ZM75.8991 18V9.27273H77.1946V10.6364H77.3082C77.4901 10.1705 77.7836 9.80871 78.1889 9.55114C78.5942 9.28977 79.081 9.15909 79.6491 9.15909C80.2249 9.15909 80.7041 9.28977 81.0866 9.55114C81.473 9.80871 81.7741 10.1705 81.9901 10.6364H82.081C82.3045 10.1856 82.6397 9.82765 83.0866 9.5625C83.5336 9.29356 84.0696 9.15909 84.6946 9.15909C85.4749 9.15909 86.1132 9.40341 86.6094 9.89205C87.1056 10.3769 87.3537 11.1326 87.3537 12.1591V18H86.0128V12.1591C86.0128 11.5152 85.8366 11.0549 85.4844 10.7784C85.1321 10.5019 84.7173 10.3636 84.2401 10.3636C83.6264 10.3636 83.151 10.5492 82.8139 10.9205C82.4768 11.2879 82.3082 11.7538 82.3082 12.3182V18H80.9446V12.0227C80.9446 11.5265 80.7836 11.1269 80.4616 10.8239C80.1397 10.517 79.7249 10.3636 79.2173 10.3636C78.8688 10.3636 78.5431 10.4564 78.2401 10.642C77.9408 10.8277 77.6984 11.0852 77.5128 11.4148C77.331 11.7405 77.2401 12.1174 77.2401 12.5455V18H75.8991ZM89.9872 18V6.36364H91.3281V10.6591H91.4418C91.5402 10.5076 91.6766 10.3144 91.8509 10.0795C92.0289 9.84091 92.2827 9.62879 92.6122 9.44318C92.9455 9.25379 93.3963 9.15909 93.9645 9.15909C94.6993 9.15909 95.3471 9.3428 95.9077 9.71023C96.4683 10.0777 96.9058 10.5985 97.2202 11.2727C97.5346 11.947 97.6918 12.7424 97.6918 13.6591C97.6918 14.5833 97.5346 15.3845 97.2202 16.0625C96.9058 16.7367 96.4702 17.2595 95.9134 17.6307C95.3565 17.9981 94.7145 18.1818 93.9872 18.1818C93.4266 18.1818 92.9777 18.089 92.6406 17.9034C92.3035 17.714 92.044 17.5 91.8622 17.2614C91.6804 17.0189 91.5402 16.8182 91.4418 16.6591H91.2827V18H89.9872ZM91.3054 13.6364C91.3054 14.2955 91.402 14.8769 91.5952 15.3807C91.7884 15.8807 92.0705 16.2727 92.4418 16.5568C92.813 16.8371 93.2675 16.9773 93.8054 16.9773C94.366 16.9773 94.8338 16.8295 95.2088 16.5341C95.5876 16.2348 95.8717 15.8333 96.0611 15.3295C96.2543 14.822 96.3509 14.2576 96.3509 13.6364C96.3509 13.0227 96.2562 12.4697 96.0668 11.9773C95.8812 11.4811 95.599 11.089 95.2202 10.8011C94.8452 10.5095 94.3736 10.3636 93.8054 10.3636C93.2599 10.3636 92.8016 10.5019 92.4304 10.7784C92.0592 11.0511 91.7789 11.4337 91.5895 11.9261C91.4001 12.4148 91.3054 12.9848 91.3054 13.6364ZM103.402 18.1818C102.561 18.1818 101.836 17.9962 101.226 17.625C100.62 17.25 100.152 16.7273 99.8224 16.0568C99.4967 15.3826 99.3338 14.5985 99.3338 13.7045C99.3338 12.8106 99.4967 12.0227 99.8224 11.3409C100.152 10.6553 100.61 10.1212 101.197 9.73864C101.788 9.35227 102.478 9.15909 103.266 9.15909C103.72 9.15909 104.169 9.23485 104.612 9.38636C105.055 9.53788 105.459 9.78409 105.822 10.125C106.186 10.4621 106.476 10.9091 106.692 11.4659C106.908 12.0227 107.016 12.7083 107.016 13.5227V14.0909H100.288V12.9318H105.652C105.652 12.4394 105.554 12 105.357 11.6136C105.163 11.2273 104.887 10.9223 104.527 10.6989C104.171 10.4754 103.75 10.3636 103.266 10.3636C102.732 10.3636 102.269 10.4962 101.879 10.7614C101.493 11.0227 101.196 11.3636 100.987 11.7841C100.779 12.2045 100.675 12.6553 100.675 13.1364V13.9091C100.675 14.5682 100.788 15.1269 101.016 15.5852C101.247 16.0398 101.567 16.3864 101.976 16.625C102.385 16.8598 102.86 16.9773 103.402 16.9773C103.754 16.9773 104.072 16.928 104.357 16.8295C104.644 16.7273 104.893 16.5758 105.101 16.375C105.309 16.1705 105.47 15.9167 105.584 15.6136L106.879 15.9773C106.743 16.4167 106.514 16.803 106.192 17.1364C105.87 17.4659 105.472 17.7235 104.999 17.9091C104.525 18.0909 103.993 18.1818 103.402 18.1818ZM109.055 18V9.27273H110.351V10.5909H110.442C110.601 10.1591 110.889 9.80871 111.305 9.53977C111.722 9.27083 112.192 9.13636 112.714 9.13636C112.813 9.13636 112.936 9.13826 113.084 9.14205C113.232 9.14583 113.343 9.15152 113.419 9.15909V10.5227C113.374 10.5114 113.269 10.4943 113.107 10.4716C112.947 10.4451 112.779 10.4318 112.601 10.4318C112.177 10.4318 111.798 10.5208 111.464 10.6989C111.135 10.8731 110.874 11.1155 110.68 11.4261C110.491 11.733 110.396 12.0833 110.396 12.4773V18H109.055ZM119.509 18V9.27273H120.804V10.6364H120.918C121.099 10.1705 121.393 9.80871 121.798 9.55114C122.204 9.28977 122.69 9.15909 123.259 9.15909C123.834 9.15909 124.313 9.28977 124.696 9.55114C125.082 9.80871 125.384 10.1705 125.599 10.6364H125.69C125.914 10.1856 126.249 9.82765 126.696 9.5625C127.143 9.29356 127.679 9.15909 128.304 9.15909C129.084 9.15909 129.723 9.40341 130.219 9.89205C130.715 10.3769 130.963 11.1326 130.963 12.1591V18H129.622V12.1591C129.622 11.5152 129.446 11.0549 129.094 10.7784C128.741 10.5019 128.327 10.3636 127.849 10.3636C127.236 10.3636 126.76 10.5492 126.423 10.9205C126.086 11.2879 125.918 11.7538 125.918 12.3182V18H124.554V12.0227C124.554 11.5265 124.393 11.1269 124.071 10.8239C123.749 10.517 123.334 10.3636 122.827 10.3636C122.478 10.3636 122.152 10.4564 121.849 10.642C121.55 10.8277 121.308 11.0852 121.122 11.4148C120.94 11.7405 120.849 12.1174 120.849 12.5455V18H119.509ZM137.074 18.1818C136.233 18.1818 135.508 17.9962 134.898 17.625C134.292 17.25 133.824 16.7273 133.494 16.0568C133.169 15.3826 133.006 14.5985 133.006 13.7045C133.006 12.8106 133.169 12.0227 133.494 11.3409C133.824 10.6553 134.282 10.1212 134.869 9.73864C135.46 9.35227 136.15 9.15909 136.938 9.15909C137.392 9.15909 137.841 9.23485 138.284 9.38636C138.727 9.53788 139.131 9.78409 139.494 10.125C139.858 10.4621 140.148 10.9091 140.364 11.4659C140.58 12.0227 140.688 12.7083 140.688 13.5227V14.0909H133.96V12.9318H139.324C139.324 12.4394 139.225 12 139.028 11.6136C138.835 11.2273 138.559 10.9223 138.199 10.6989C137.843 10.4754 137.422 10.3636 136.938 10.3636C136.403 10.3636 135.941 10.4962 135.551 10.7614C135.165 11.0227 134.867 11.3636 134.659 11.7841C134.451 12.2045 134.347 12.6553 134.347 13.1364V13.9091C134.347 14.5682 134.46 15.1269 134.688 15.5852C134.919 16.0398 135.239 16.3864 135.648 16.625C136.057 16.8598 136.532 16.9773 137.074 16.9773C137.426 16.9773 137.744 16.928 138.028 16.8295C138.316 16.7273 138.564 16.5758 138.773 16.375C138.981 16.1705 139.142 15.9167 139.256 15.6136L140.551 15.9773C140.415 16.4167 140.186 16.803 139.864 17.1364C139.542 17.4659 139.144 17.7235 138.67 17.9091C138.197 18.0909 137.665 18.1818 137.074 18.1818Z" fill="black"/>
</svg>
