<svg width="25" height="25" viewBox="0 0 25 25" fill="none" xmlns="http://www.w3.org/2000/svg">
<mask id="mask0_170416_827" style="mask-type:alpha" maskUnits="userSpaceOnUse" x="0" y="0" width="25" height="25">
<rect x="0.5" y="0.5" width="24" height="24" fill="#D9D9D9"/>
</mask>
<g mask="url(#mask0_170416_827)">
<path d="M4.5 20.5C3.95 20.5 3.47917 20.3042 3.0875 19.9125C2.69583 19.5208 2.5 19.05 2.5 18.5V6.5C2.5 5.95 2.69583 5.47917 3.0875 5.0875C3.47917 4.69583 3.95 4.5 4.5 4.5H20.5C21.05 4.5 21.5208 4.69583 21.9125 5.0875C22.3042 5.47917 22.5 5.95 22.5 6.5V18.5C22.5 19.05 22.3042 19.5208 21.9125 19.9125C21.5208 20.3042 21.05 20.5 20.5 20.5H4.5ZM20.5 8.5L13.025 13.175C12.9417 13.225 12.8542 13.2625 12.7625 13.2875C12.6708 13.3125 12.5833 13.325 12.5 13.325C12.4167 13.325 12.3292 13.3125 12.2375 13.2875C12.1458 13.2625 12.0583 13.225 11.975 13.175L4.5 8.5V18.5H20.5V8.5ZM12.5 11.5L20.5 6.5H4.5L12.5 11.5ZM4.5 8.75V7.275V7.3V7.2875V8.75Z" fill="#A8A8A8"/>
</g>
</svg>
