<svg width="322" height="25" viewBox="0 0 322 25" fill="none" xmlns="http://www.w3.org/2000/svg">
<path d="M1.76136 19.5V4.95455H10.5398V6.51705H3.52273V11.4318H10.0852V12.9943H3.52273V17.9375H10.6534V19.5H1.76136ZM13.4872 19.5V8.59091H15.1065V10.2955H15.2486C15.4759 9.71307 15.8428 9.26089 16.3494 8.93892C16.8561 8.61222 17.4645 8.44886 18.1747 8.44886C18.8944 8.44886 19.4934 8.61222 19.9716 8.93892C20.4545 9.26089 20.831 9.71307 21.1009 10.2955H21.2145C21.4938 9.73201 21.9129 9.28456 22.4716 8.95312C23.0303 8.61695 23.7003 8.44886 24.4815 8.44886C25.4569 8.44886 26.2547 8.75426 26.875 9.36506C27.4953 9.97112 27.8054 10.9157 27.8054 12.1989V19.5H26.1293V12.1989C26.1293 11.3939 25.9091 10.8187 25.4688 10.473C25.0284 10.1274 24.5099 9.95455 23.9134 9.95455C23.1463 9.95455 22.5521 10.1866 22.1307 10.6506C21.7093 11.1098 21.4986 11.6922 21.4986 12.3977V19.5H19.794V12.0284C19.794 11.4081 19.5928 10.9086 19.1903 10.5298C18.7879 10.1463 18.2694 9.95455 17.6349 9.95455C17.1993 9.95455 16.7921 10.0705 16.4134 10.3026C16.0393 10.5346 15.7363 10.8565 15.5043 11.2685C15.277 11.6757 15.1634 12.1468 15.1634 12.6818V19.5H13.4872ZM34.0803 19.7557C33.389 19.7557 32.7616 19.6255 32.1982 19.3651C31.6347 19.0999 31.1873 18.7188 30.8558 18.2216C30.5244 17.7197 30.3587 17.1136 30.3587 16.4034C30.3587 15.7784 30.4818 15.2718 30.728 14.8835C30.9742 14.4905 31.3033 14.1828 31.7152 13.9602C32.1271 13.7377 32.5817 13.572 33.0788 13.4631C33.5807 13.3494 34.085 13.2595 34.5916 13.1932C35.2545 13.108 35.7919 13.044 36.2038 13.0014C36.6205 12.9541 36.9235 12.8759 37.1129 12.767C37.3071 12.6581 37.4041 12.4687 37.4041 12.1989V12.142C37.4041 11.4413 37.2124 10.8968 36.8288 10.5085C36.45 10.1203 35.8748 9.92614 35.103 9.92614C34.3028 9.92614 33.6754 10.1013 33.2209 10.4517C32.7663 10.8021 32.4467 11.1761 32.2621 11.5739L30.6712 11.0057C30.9553 10.3428 31.334 9.8267 31.8075 9.45739C32.2857 9.08333 32.8066 8.82292 33.37 8.67614C33.9382 8.52462 34.4969 8.44886 35.0462 8.44886C35.3965 8.44886 35.799 8.49148 36.2536 8.5767C36.7128 8.6572 37.1555 8.82528 37.5817 9.08097C38.0125 9.33665 38.37 9.72254 38.6541 10.2386C38.9382 10.7547 39.0803 11.446 39.0803 12.3125V19.5H37.4041V18.0227H37.3189C37.2053 18.2595 37.0159 18.5128 36.7507 18.7827C36.4856 19.0526 36.1328 19.2822 35.6925 19.4716C35.2521 19.661 34.7147 19.7557 34.0803 19.7557ZM34.3359 18.25C34.9988 18.25 35.5575 18.1198 36.0121 17.8594C36.4714 17.599 36.817 17.2628 37.049 16.8509C37.2857 16.4389 37.4041 16.0057 37.4041 15.5511V14.017C37.3331 14.1023 37.1768 14.1804 36.9354 14.2514C36.6986 14.3177 36.424 14.3769 36.1115 14.429C35.8037 14.4763 35.5031 14.5189 35.2095 14.5568C34.9207 14.59 34.6863 14.6184 34.5064 14.642C34.0708 14.6989 33.6636 14.7912 33.2848 14.919C32.9107 15.0421 32.6077 15.2292 32.3757 15.4801C32.1484 15.7263 32.0348 16.0625 32.0348 16.4886C32.0348 17.071 32.2502 17.5114 32.6811 17.8097C33.1167 18.1032 33.6683 18.25 34.3359 18.25ZM42.1396 19.5V8.59091H43.8157V19.5H42.1396ZM42.9918 6.77273C42.6651 6.77273 42.3834 6.66146 42.1467 6.43892C41.9147 6.21638 41.7987 5.94886 41.7987 5.63636C41.7987 5.32386 41.9147 5.05634 42.1467 4.83381C42.3834 4.61127 42.6651 4.5 42.9918 4.5C43.3185 4.5 43.5979 4.61127 43.8299 4.83381C44.0666 5.05634 44.185 5.32386 44.185 5.63636C44.185 5.94886 44.0666 6.21638 43.8299 6.43892C43.5979 6.66146 43.3185 6.77273 42.9918 6.77273ZM48.5618 4.95455V19.5H46.8857V4.95455H48.5618Z" fill="#D1D1D1"/>
<mask id="mask0_172058_6207" style="mask-type:alpha" maskUnits="userSpaceOnUse" x="298" y="0" width="24" height="25">
<rect x="298" y="0.5" width="24" height="24" fill="#D9D9D9"/>
</mask>
<g mask="url(#mask0_172058_6207)">
<path d="M302 20.5C301.45 20.5 300.979 20.3042 300.588 19.9125C300.196 19.5208 300 19.05 300 18.5V6.5C300 5.95 300.196 5.47917 300.588 5.0875C300.979 4.69583 301.45 4.5 302 4.5H318C318.55 4.5 319.021 4.69583 319.413 5.0875C319.804 5.47917 320 5.95 320 6.5V18.5C320 19.05 319.804 19.5208 319.413 19.9125C319.021 20.3042 318.55 20.5 318 20.5H302ZM318 8.5L310.525 13.175C310.442 13.225 310.354 13.2625 310.262 13.2875C310.171 13.3125 310.083 13.325 310 13.325C309.917 13.325 309.829 13.3125 309.738 13.2875C309.646 13.2625 309.558 13.225 309.475 13.175L302 8.5V18.5H318V8.5ZM310 11.5L318 6.5H302L310 11.5ZM302 8.75V7.275V7.3V7.2875V8.75Z" fill="#A8A8A8"/>
</g>
</svg>
