<svg width="322" height="25" viewBox="0 0 322 25" fill="none" xmlns="http://www.w3.org/2000/svg">
<path d="M1.76136 19.5V4.95455H6.67614C7.81724 4.95455 8.75 5.16051 9.47443 5.57244C10.2036 5.97964 10.7434 6.53125 11.0938 7.22727C11.4441 7.9233 11.6193 8.69981 11.6193 9.55682C11.6193 10.4138 11.4441 11.1927 11.0938 11.8935C10.7481 12.5942 10.2131 13.1529 9.48864 13.5696C8.7642 13.9815 7.83617 14.1875 6.70455 14.1875H3.18182V12.625H6.64773C7.42898 12.625 8.05634 12.4901 8.52983 12.2202C9.00331 11.9503 9.34659 11.5857 9.55966 11.1264C9.77746 10.6624 9.88636 10.1392 9.88636 9.55682C9.88636 8.97443 9.77746 8.4536 9.55966 7.99432C9.34659 7.53504 9.00095 7.17519 8.52273 6.91477C8.04451 6.64962 7.41004 6.51705 6.61932 6.51705H3.52273V19.5H1.76136ZM17.4396 19.7557C16.7483 19.7557 16.121 19.6255 15.5575 19.3651C14.9941 19.0999 14.5466 18.7188 14.2152 18.2216C13.8838 17.7197 13.718 17.1136 13.718 16.4034C13.718 15.7784 13.8411 15.2718 14.0874 14.8835C14.3336 14.4905 14.6626 14.1828 15.0746 13.9602C15.4865 13.7377 15.9411 13.572 16.4382 13.4631C16.9401 13.3494 17.4444 13.2595 17.951 13.1932C18.6139 13.108 19.1513 13.044 19.5632 13.0014C19.9799 12.9541 20.2829 12.8759 20.4723 12.767C20.6664 12.6581 20.7635 12.4687 20.7635 12.1989V12.142C20.7635 11.4413 20.5717 10.8968 20.1882 10.5085C19.8094 10.1203 19.2341 9.92614 18.4624 9.92614C17.6622 9.92614 17.0348 10.1013 16.5803 10.4517C16.1257 10.8021 15.8061 11.1761 15.6214 11.5739L14.0305 11.0057C14.3146 10.3428 14.6934 9.8267 15.1669 9.45739C15.6451 9.08333 16.166 8.82292 16.7294 8.67614C17.2976 8.52462 17.8563 8.44886 18.4055 8.44886C18.7559 8.44886 19.1584 8.49148 19.6129 8.5767C20.0722 8.6572 20.5149 8.82528 20.9411 9.08097C21.3719 9.33665 21.7294 9.72254 22.0135 10.2386C22.2976 10.7547 22.4396 11.446 22.4396 12.3125V19.5H20.7635V18.0227H20.6783C20.5646 18.2595 20.3752 18.5128 20.1101 18.7827C19.8449 19.0526 19.4922 19.2822 19.0518 19.4716C18.6115 19.661 18.0741 19.7557 17.4396 19.7557ZM17.6953 18.25C18.3582 18.25 18.9169 18.1198 19.3714 17.8594C19.8307 17.599 20.1764 17.2628 20.4084 16.8509C20.6451 16.4389 20.7635 16.0057 20.7635 15.5511V14.017C20.6925 14.1023 20.5362 14.1804 20.2947 14.2514C20.058 14.3177 19.7834 14.3769 19.4709 14.429C19.1631 14.4763 18.8625 14.5189 18.5689 14.5568C18.2801 14.59 18.0457 14.6184 17.8658 14.642C17.4302 14.6989 17.023 14.7912 16.6442 14.919C16.2701 15.0421 15.9671 15.2292 15.7351 15.4801C15.5078 15.7263 15.3942 16.0625 15.3942 16.4886C15.3942 17.071 15.6096 17.5114 16.0405 17.8097C16.4761 18.1032 17.0277 18.25 17.6953 18.25ZM33.2262 11.0341L31.7205 11.4602C31.6258 11.2093 31.4862 10.9654 31.3015 10.7287C31.1216 10.4872 30.8754 10.2884 30.5629 10.1321C30.2504 9.97585 29.8503 9.89773 29.3626 9.89773C28.695 9.89773 28.1386 10.0516 27.6935 10.3594C27.2532 10.6624 27.033 11.0483 27.033 11.517C27.033 11.9337 27.1845 12.2628 27.4876 12.5043C27.7906 12.7457 28.2641 12.947 28.908 13.108L30.5273 13.5057C31.5027 13.7424 32.2295 14.1046 32.7077 14.5923C33.186 15.0753 33.4251 15.6979 33.4251 16.4602C33.4251 17.0852 33.2451 17.6439 32.8853 18.1364C32.5302 18.6288 32.033 19.017 31.3938 19.3011C30.7546 19.5852 30.0112 19.7273 29.1637 19.7273C28.051 19.7273 27.1301 19.4858 26.4009 19.0028C25.6718 18.5199 25.2101 17.8144 25.016 16.8864L26.6069 16.4886C26.7584 17.0758 27.0449 17.5161 27.4663 17.8097C27.8924 18.1032 28.4487 18.25 29.1353 18.25C29.9165 18.25 30.5368 18.0843 30.9961 17.7528C31.4601 17.4167 31.6921 17.0142 31.6921 16.5455C31.6921 16.1667 31.5595 15.8494 31.2944 15.5938C31.0292 15.3333 30.622 15.1392 30.0728 15.0114L28.2546 14.5852C27.2556 14.3485 26.5217 13.9815 26.0529 13.4844C25.5889 12.9825 25.3569 12.3551 25.3569 11.6023C25.3569 10.9867 25.5297 10.4422 25.8754 9.96875C26.2257 9.49527 26.7016 9.12358 27.3029 8.85369C27.909 8.58381 28.5955 8.44886 29.3626 8.44886C30.4421 8.44886 31.2897 8.68561 31.9052 9.15909C32.5254 9.63258 32.9658 10.2576 33.2262 11.0341ZM43.6754 11.0341L42.1697 11.4602C42.075 11.2093 41.9354 10.9654 41.7507 10.7287C41.5708 10.4872 41.3246 10.2884 41.0121 10.1321C40.6996 9.97585 40.2995 9.89773 39.8118 9.89773C39.1442 9.89773 38.5878 10.0516 38.1428 10.3594C37.7024 10.6624 37.4822 11.0483 37.4822 11.517C37.4822 11.9337 37.6338 12.2628 37.9368 12.5043C38.2398 12.7457 38.7133 12.947 39.3572 13.108L40.9766 13.5057C41.9519 13.7424 42.6787 14.1046 43.157 14.5923C43.6352 15.0753 43.8743 15.6979 43.8743 16.4602C43.8743 17.0852 43.6944 17.6439 43.3345 18.1364C42.9794 18.6288 42.4822 19.017 41.843 19.3011C41.2038 19.5852 40.4605 19.7273 39.6129 19.7273C38.5002 19.7273 37.5793 19.4858 36.8501 19.0028C36.121 18.5199 35.6593 17.8144 35.4652 16.8864L37.0561 16.4886C37.2076 17.0758 37.4941 17.5161 37.9155 17.8097C38.3416 18.1032 38.898 18.25 39.5845 18.25C40.3658 18.25 40.986 18.0843 41.4453 17.7528C41.9093 17.4167 42.1413 17.0142 42.1413 16.5455C42.1413 16.1667 42.0088 15.8494 41.7436 15.5938C41.4785 15.3333 41.0713 15.1392 40.522 15.0114L38.7038 14.5852C37.7048 14.3485 36.9709 13.9815 36.5021 13.4844C36.0381 12.9825 35.8061 12.3551 35.8061 11.6023C35.8061 10.9867 35.9789 10.4422 36.3246 9.96875C36.675 9.49527 37.1508 9.12358 37.7521 8.85369C38.3582 8.58381 39.0447 8.44886 39.8118 8.44886C40.8913 8.44886 41.7389 8.68561 42.3544 9.15909C42.9747 9.63258 43.415 10.2576 43.6754 11.0341ZM48.869 19.5L45.5451 8.59091H47.3065L49.6644 16.9432H49.7781L52.1076 8.59091H53.8974L56.1985 16.9148H56.3121L58.6701 8.59091H60.4315L57.1076 19.5H55.4599L53.0735 11.1193H52.9031L50.5167 19.5H48.869ZM66.7081 19.7273C65.7232 19.7273 64.8591 19.4929 64.1158 19.0241C63.3771 18.5554 62.7995 17.8996 62.3828 17.0568C61.9709 16.214 61.7649 15.2292 61.7649 14.1023C61.7649 12.9659 61.9709 11.974 62.3828 11.1264C62.7995 10.2789 63.3771 9.62074 64.1158 9.15199C64.8591 8.68324 65.7232 8.44886 66.7081 8.44886C67.6929 8.44886 68.5547 8.68324 69.2933 9.15199C70.0367 9.62074 70.6143 10.2789 71.0263 11.1264C71.4429 11.974 71.6513 12.9659 71.6513 14.1023C71.6513 15.2292 71.4429 16.214 71.0263 17.0568C70.6143 17.8996 70.0367 18.5554 69.2933 19.0241C68.5547 19.4929 67.6929 19.7273 66.7081 19.7273ZM66.7081 18.2216C67.4562 18.2216 68.0717 18.0298 68.5547 17.6463C69.0376 17.2628 69.3951 16.7585 69.6271 16.1335C69.8591 15.5085 69.9751 14.8314 69.9751 14.1023C69.9751 13.3731 69.8591 12.6937 69.6271 12.0639C69.3951 11.4342 69.0376 10.9252 68.5547 10.5369C68.0717 10.1487 67.4562 9.95455 66.7081 9.95455C65.96 9.95455 65.3445 10.1487 64.8615 10.5369C64.3786 10.9252 64.0211 11.4342 63.7891 12.0639C63.5571 12.6937 63.4411 13.3731 63.4411 14.1023C63.4411 14.8314 63.5571 15.5085 63.7891 16.1335C64.0211 16.7585 64.3786 17.2628 64.8615 17.6463C65.3445 18.0298 65.96 18.2216 66.7081 18.2216ZM74.2099 19.5V8.59091H75.8292V10.2386H75.9428C76.1417 9.69886 76.5015 9.26089 77.0224 8.92472C77.5432 8.58854 78.1303 8.42045 78.7837 8.42045C78.9068 8.42045 79.0607 8.42282 79.2454 8.42756C79.43 8.43229 79.5697 8.43939 79.6644 8.44886V10.1534C79.6076 10.1392 79.4774 10.1179 79.2738 10.0895C79.0749 10.0563 78.8642 10.0398 78.6417 10.0398C78.1114 10.0398 77.6379 10.151 77.2212 10.3736C76.8093 10.5914 76.4826 10.8944 76.2411 11.2827C76.0044 11.6662 75.886 12.1042 75.886 12.5966V19.5H74.2099ZM85.4386 19.7273C84.5295 19.7273 83.7269 19.4976 83.0309 19.0384C82.3349 18.5743 81.7904 17.9209 81.3974 17.0781C81.0044 16.2306 80.8079 15.2292 80.8079 14.0739C80.8079 12.928 81.0044 11.9337 81.3974 11.0909C81.7904 10.2481 82.3372 9.59706 83.038 9.13778C83.7388 8.6785 84.5484 8.44886 85.467 8.44886C86.1772 8.44886 86.7383 8.56723 87.1502 8.80398C87.5669 9.03598 87.8841 9.30114 88.1019 9.59943C88.3245 9.89299 88.4973 10.1345 88.6204 10.3239H88.7624V4.95455H90.4386V19.5H88.8192V17.8239H88.6204C88.4973 18.0227 88.3221 18.2737 88.0948 18.5767C87.8675 18.875 87.5432 19.1425 87.1218 19.3793C86.7004 19.6113 86.1393 19.7273 85.4386 19.7273ZM85.6658 18.2216C86.3382 18.2216 86.9064 18.0464 87.3704 17.696C87.8344 17.3409 88.1871 16.8509 88.4286 16.2259C88.6701 15.5961 88.7908 14.8693 88.7908 14.0455C88.7908 13.2311 88.6725 12.5185 88.4357 11.9077C88.199 11.2921 87.8486 10.8139 87.3846 10.473C86.9206 10.1274 86.3477 9.95455 85.6658 9.95455C84.9556 9.95455 84.3638 10.1368 83.8903 10.5014C83.4215 10.8613 83.0688 11.3513 82.832 11.9716C82.6 12.5871 82.484 13.2784 82.484 14.0455C82.484 14.822 82.6024 15.5275 82.8391 16.1619C83.0806 16.7917 83.4357 17.2936 83.9045 17.6676C84.378 18.0369 84.9651 18.2216 85.6658 18.2216Z" fill="#D1D1D1"/>
<mask id="mask0_172058_6214" style="mask-type:alpha" maskUnits="userSpaceOnUse" x="298" y="0" width="24" height="25">
<rect x="298" y="0.5" width="24" height="24" fill="#D9D9D9"/>
</mask>
<g mask="url(#mask0_172058_6214)">
<path d="M304 22.5C303.45 22.5 302.979 22.3042 302.588 21.9125C302.196 21.5208 302 21.05 302 20.5V10.5C302 9.95 302.196 9.47917 302.588 9.0875C302.979 8.69583 303.45 8.5 304 8.5H305V6.5C305 5.11667 305.488 3.9375 306.463 2.9625C307.438 1.9875 308.617 1.5 310 1.5C311.383 1.5 312.562 1.9875 313.538 2.9625C314.513 3.9375 315 5.11667 315 6.5V8.5H316C316.55 8.5 317.021 8.69583 317.413 9.0875C317.804 9.47917 318 9.95 318 10.5V20.5C318 21.05 317.804 21.5208 317.413 21.9125C317.021 22.3042 316.55 22.5 316 22.5H304ZM304 20.5H316V10.5H304V20.5ZM310 17.5C310.55 17.5 311.021 17.3042 311.413 16.9125C311.804 16.5208 312 16.05 312 15.5C312 14.95 311.804 14.4792 311.413 14.0875C311.021 13.6958 310.55 13.5 310 13.5C309.45 13.5 308.979 13.6958 308.588 14.0875C308.196 14.4792 308 14.95 308 15.5C308 16.05 308.196 16.5208 308.588 16.9125C308.979 17.3042 309.45 17.5 310 17.5ZM307 8.5H313V6.5C313 5.66667 312.708 4.95833 312.125 4.375C311.542 3.79167 310.833 3.5 310 3.5C309.167 3.5 308.458 3.79167 307.875 4.375C307.292 4.95833 307 5.66667 307 6.5V8.5Z" fill="#A8A8A8"/>
</g>
</svg>
