<svg width="24" height="25" viewBox="0 0 24 25" fill="none" xmlns="http://www.w3.org/2000/svg">
<mask id="mask0_136571_6201" style="mask-type:alpha" maskUnits="userSpaceOnUse" x="0" y="0" width="24" height="25">
<rect y="0.5" width="24" height="24" fill="#D9D9D9"/>
</mask>
<g mask="url(#mask0_136571_6201)">
<path d="M12 16.5C13.25 16.5 14.3125 16.0625 15.1875 15.1875C16.0625 14.3125 16.5 13.25 16.5 12C16.5 10.75 16.0625 9.6875 15.1875 8.8125C14.3125 7.9375 13.25 7.5 12 7.5C10.75 7.5 9.68755 7.9375 8.81255 8.8125C7.93755 9.6875 7.50005 10.75 7.50005 12C7.50005 13.25 7.93755 14.3125 8.81255 15.1875C9.68755 16.0625 10.75 16.5 12 16.5ZM12 14.7C11.25 14.7 10.6125 14.4375 10.0875 13.9125C9.56255 13.3875 9.30005 12.75 9.30005 12C9.30005 11.25 9.56255 10.6125 10.0875 10.0875C10.6125 9.5625 11.25 9.3 12 9.3C12.75 9.3 13.3875 9.5625 13.9125 10.0875C14.4375 10.6125 14.7 11.25 14.7 12C14.7 12.75 14.4375 13.3875 13.9125 13.9125C13.3875 14.4375 12.75 14.7 12 14.7ZM12 19.5C9.68338 19.5 7.56672 18.8875 5.65005 17.6625C3.73338 16.4375 2.28338 14.7833 1.30005 12.7C1.25005 12.6167 1.21672 12.5125 1.20005 12.3875C1.18338 12.2625 1.17505 12.1333 1.17505 12C1.17505 11.8667 1.18338 11.7375 1.20005 11.6125C1.21672 11.4875 1.25005 11.3833 1.30005 11.3C2.28338 9.21667 3.73338 7.5625 5.65005 6.3375C7.56672 5.1125 9.68338 4.5 12 4.5C14.3167 4.5 16.4334 5.1125 18.35 6.3375C20.2667 7.5625 21.7167 9.21667 22.7 11.3C22.75 11.3833 22.7834 11.4875 22.8 11.6125C22.8167 11.7375 22.825 11.8667 22.825 12C22.825 12.1333 22.8167 12.2625 22.8 12.3875C22.7834 12.5125 22.75 12.6167 22.7 12.7C21.7167 14.7833 20.2667 16.4375 18.35 17.6625C16.4334 18.8875 14.3167 19.5 12 19.5ZM12 17.5C13.8834 17.5 15.6125 17.0042 17.1875 16.0125C18.7625 15.0208 19.9667 13.6833 20.8 12C19.9667 10.3167 18.7625 8.97917 17.1875 7.9875C15.6125 6.99583 13.8834 6.5 12 6.5C10.1167 6.5 8.38755 6.99583 6.81255 7.9875C5.23755 8.97917 4.03338 10.3167 3.20005 12C4.03338 13.6833 5.23755 15.0208 6.81255 16.0125C8.38755 17.0042 10.1167 17.5 12 17.5Z" fill="#A8A8A8"/>
</g>
</svg>
